{
    "header": {
      "keySignatures": [],
      "meta": [],
      "name": "Elec. Piano (Classic)",
      "ppq": 384,
      "tempos": [
        {
          "bpm": 55.00000458333371,
          "ticks": 0
        }
      ],
      "timeSignatures": [
        {
          "ticks": 0,
          "timeSignature": [
            4,
            4
          ],
          "measures": 0
        }
      ]
    },
    "tracks": [
      {
        "channel": 0,
        "controlChanges": {},
        "pitchBends": [],
        "instrument": {
          "family": "piano",
          "number": 0,
          "name": "acoustic grand piano"
        },
        "name": "Elec. Piano (Classic)",
        "notes": [
          {
            "duration": 0.27272725000000003,
            "durationTicks": 96,
            "midi": 52,
            "name": "E3",
            "ticks": 0,
            "time": 0,
            "velocity": 0.3937007874015748
          },
          {
            "duration": 0.27272725000000003,
            "durationTicks": 96,
            "midi": 50,
            "name": "D3",
            "ticks": 96,
            "time": 0.27272725000000003,
            "velocity": 0.3937007874015748
          },
          {
            "duration": 0.2727272500000001,
            "durationTicks": 96,
            "midi": 48,
            "name": "C3",
            "ticks": 192,
            "time": 0.5454545000000001,
            "velocity": 0.3937007874015748
          },
          {
            "duration": 0.27272725,
            "durationTicks": 96,
            "midi": 50,
            "name": "D3",
            "ticks": 288,
            "time": 0.8181817500000002,
            "velocity": 0.3937007874015748
          },
          {
            "duration": 0.27272725,
            "durationTicks": 96,
            "midi": 52,
            "name": "E3",
            "ticks": 384,
            "time": 1.0909090000000001,
            "velocity": 0.3937007874015748
          },
          {
            "duration": 0.2727272500000002,
            "durationTicks": 96,
            "midi": 52,
            "name": "E3",
            "ticks": 480,
            "time": 1.36363625,
            "velocity": 0.3937007874015748
          },
          {
            "duration": 0.27272725,
            "durationTicks": 96,
            "midi": 52,
            "name": "E3",
            "ticks": 576,
            "time": 1.6363635000000003,
            "velocity": 0.3937007874015748
          },
          {
            "duration": 0.27272725,
            "durationTicks": 96,
            "midi": 50,
            "name": "D3",
            "ticks": 768,
            "time": 2.1818180000000003,
            "velocity": 0.3937007874015748
          },
          {
            "duration": 0.27272725,
            "durationTicks": 96,
            "midi": 50,
            "name": "D3",
            "ticks": 864,
            "time": 2.4545452500000002,
            "velocity": 0.3937007874015748
          },
          {
            "duration": 0.27272725,
            "durationTicks": 96,
            "midi": 50,
            "name": "D3",
            "ticks": 960,
            "time": 2.7272725,
            "velocity": 0.3937007874015748
          },
          {
            "duration": 0.27272725,
            "durationTicks": 96,
            "midi": 52,
            "name": "E3",
            "ticks": 1152,
            "time": 3.2727270000000006,
            "velocity": 0.3937007874015748
          },
          {
            "duration": 0.27272725,
            "durationTicks": 96,
            "midi": 55,
            "name": "G3",
            "ticks": 1248,
            "time": 3.5454542500000006,
            "velocity": 0.3937007874015748
          },
          {
            "duration": 0.27272725,
            "durationTicks": 96,
            "midi": 55,
            "name": "G3",
            "ticks": 1344,
            "time": 3.8181815000000006,
            "velocity": 0.3937007874015748
          },
          {
            "duration": 0.27272725,
            "durationTicks": 96,
            "midi": 52,
            "name": "E3",
            "ticks": 1536,
            "time": 4.3636360000000005,
            "velocity": 0.3937007874015748
          },
          {
            "duration": 0.27272725,
            "durationTicks": 96,
            "midi": 50,
            "name": "D3",
            "ticks": 1632,
            "time": 4.6363632500000005,
            "velocity": 0.3937007874015748
          },
          {
            "duration": 0.27272725,
            "durationTicks": 96,
            "midi": 48,
            "name": "C3",
            "ticks": 1728,
            "time": 4.9090905000000005,
            "velocity": 0.3937007874015748
          },
          {
            "duration": 0.27272725,
            "durationTicks": 96,
            "midi": 50,
            "name": "D3",
            "ticks": 1824,
            "time": 5.1818177500000004,
            "velocity": 0.3937007874015748
          },
          {
            "duration": 0.27272725,
            "durationTicks": 96,
            "midi": 52,
            "name": "E3",
            "ticks": 1920,
            "time": 5.454545,
            "velocity": 0.3937007874015748
          },
          {
            "duration": 0.27272725,
            "durationTicks": 96,
            "midi": 52,
            "name": "E3",
            "ticks": 2016,
            "time": 5.72727225,
            "velocity": 0.3937007874015748
          },
          {
            "duration": 0.27272725,
            "durationTicks": 96,
            "midi": 52,
            "name": "E3",
            "ticks": 2112,
            "time": 5.9999995,
            "velocity": 0.3937007874015748
          },
          {
            "duration": 0.27272725,
            "durationTicks": 96,
            "midi": 50,
            "name": "D3",
            "ticks": 2304,
            "time": 6.545454000000001,
            "velocity": 0.3937007874015748
          },
          {
            "duration": 0.27272725,
            "durationTicks": 96,
            "midi": 50,
            "name": "D3",
            "ticks": 2400,
            "time": 6.818181250000001,
            "velocity": 0.3937007874015748
          },
          {
            "duration": 0.27272725,
            "durationTicks": 96,
            "midi": 52,
            "name": "E3",
            "ticks": 2496,
            "time": 7.090908500000001,
            "velocity": 0.3937007874015748
          },
          {
            "duration": 0.27272725,
            "durationTicks": 96,
            "midi": 50,
            "name": "D3",
            "ticks": 2592,
            "time": 7.363635750000001,
            "velocity": 0.3937007874015748
          },
          {
            "duration": 0.27272725,
            "durationTicks": 96,
            "midi": 48,
            "name": "C3",
            "ticks": 2688,
            "time": 7.636363000000001,
            "velocity": 0.3937007874015748
          }
        ],
        "endOfTrackTicks": 2784
      }
    ]
  }